<svg viewBox="0 0 678.02 103.3" xmlns="http://www.w3.org/2000/svg" xmlns:xlink="http://www.w3.org/1999/xlink" id="design" overflow="hidden"><defs></defs><g><path d="M9.51 102.62 0 71.13 6.12 71.13 12.51 94.25 19.24 71.13 25.25 71.13 31.98 94.23 38.34 71.13 44.3 71.13 34.81 102.62 28.78 102.62 22.19 79.86 15.51 102.62 9.53 102.62Z" stroke-width="0" fill="#E41B93"/><path d="M49.15 102.62 49.15 71.13 55.02 71.13 55.02 83.37 69.3 83.37 69.3 71.13 75.17 71.13 75.17 102.62 69.3 102.62 69.3 88.72 55.02 88.72 55.02 102.62 49.15 102.62Z" stroke-width="0" fill="#E41B93"/><path d="M83.09 102.62 83.09 71.13 104.05 71.13 104.05 76.26 88.96 76.26 88.96 83.88 101.87 83.88 101.87 88.67 88.96 88.67 88.96 97.44 104.21 97.44 104.21 102.61 83.09 102.61Z" stroke-width="0" fill="#E41B93"/><path d="M110.98 102.62 110.98 71.13 123.19 71.13C125.42 71.13 127.37 71.51 129.02 72.27 130.67 73.03 131.94 74.11 132.84 75.52 133.74 76.93 134.19 78.61 134.19 80.56 134.19 82.12 133.87 83.5 133.22 84.69 132.57 85.88 131.69 86.86 130.56 87.64 129.43 88.41 128.12 88.96 126.63 89.27L135.78 102.63 128.74 102.63 120.62 90.3 116.84 90.3 116.84 102.63 110.97 102.63ZM116.85 85.5 122.34 85.5C124.2 85.5 125.65 85.11 126.7 84.33 127.75 83.55 128.27 82.4 128.27 80.87 128.27 79.34 127.79 78.11 126.84 77.28 125.89 76.45 124.48 76.03 122.62 76.03L116.84 76.03 116.84 85.5Z" stroke-width="0" fill="#E41B93"/><path d="M141.21 102.62 141.21 71.13 162.17 71.13 162.17 76.26 147.08 76.26 147.08 83.88 159.99 83.88 159.99 88.67 147.08 88.67 147.08 97.44 162.33 97.44 162.33 102.61 141.21 102.61Z" stroke-width="0" fill="#E41B93"/><path d="M179.89 102.62 179.89 71.13 185.56 71.13 198.11 91.69 195.82 91.71 207.83 71.13 213.43 71.13 213.43 102.62 207.72 102.62 207.81 78.78 208.89 79.16 198.75 96.12 194.61 96.12 184.22 79.16 185.19 78.78 185.28 102.62 179.9 102.62Z" stroke-width="0" fill="#E41B93"/><path d="M217.75 102.62 229.83 71.13 236.38 71.13 248.71 102.62 242.1 102.62 239.42 95.49 226.78 95.49 224.19 102.62 217.76 102.62ZM228.21 90.52 237.93 90.52 233 77.74 228.21 90.52Z" stroke-width="0" fill="#E41B93"/><path d="M253.01 102.62 253.01 71.13 265.22 71.13C267.45 71.13 269.4 71.51 271.05 72.27 272.7 73.03 273.97 74.11 274.87 75.52 275.77 76.93 276.22 78.61 276.22 80.56 276.22 82.12 275.9 83.5 275.25 84.69 274.61 85.88 273.72 86.86 272.58 87.64 271.45 88.41 270.14 88.96 268.66 89.27L277.81 102.63 270.77 102.63 262.65 90.3 258.87 90.3 258.87 102.63 253 102.63ZM258.88 85.5 264.37 85.5C266.23 85.5 267.68 85.11 268.73 84.33 269.78 83.55 270.3 82.4 270.3 80.87 270.3 79.34 269.82 78.11 268.87 77.28 267.92 76.45 266.51 76.03 264.65 76.03L258.87 76.03 258.87 85.5Z" stroke-width="0" fill="#E41B93"/><path d="M283.24 102.62 283.24 71.13 289.11 71.13 289.11 86.36 301.32 71.13 308.59 71.13 297.03 85.46 310.26 102.62 302.7 102.62 293.18 89.91 289.11 94.68 289.11 102.62 283.24 102.62Z" stroke-width="0" fill="#E41B93"/><path d="M315.07 102.62 315.07 71.13 336.03 71.13 336.03 76.26 320.94 76.26 320.94 83.88 333.85 83.88 333.85 88.67 320.94 88.67 320.94 97.44 336.19 97.44 336.19 102.61 315.07 102.61Z" stroke-width="0" fill="#E41B93"/><path d="M348.78 102.62 348.78 76.48 340.08 76.48 340.08 71.13 363.38 71.13 363.38 76.48 354.68 76.48 354.68 102.62 348.79 102.62Z" stroke-width="0" fill="#E41B93"/><path d="M378.95 103.3C376.7 103.3 374.51 102.97 372.37 102.32 370.23 101.67 368.43 100.73 366.96 99.52L369.79 95.09C370.51 95.75 371.37 96.32 372.38 96.8 373.38 97.28 374.45 97.65 375.59 97.91 376.72 98.17 377.85 98.3 378.98 98.3 380.85 98.3 382.37 97.95 383.53 97.25 384.69 96.55 385.27 95.54 385.27 94.22 385.27 93.2 384.87 92.34 384.07 91.63 383.27 90.93 381.77 90.27 379.58 89.65L376.54 88.77C373.47 87.9 371.24 86.73 369.86 85.27 368.48 83.81 367.79 82.01 367.79 79.88 367.79 78.49 368.08 77.22 368.66 76.07 369.24 74.92 370.05 73.93 371.09 73.09 372.13 72.25 373.36 71.6 374.79 71.14 376.21 70.68 377.77 70.45 379.45 70.45 381.65 70.45 383.7 70.77 385.59 71.42 387.48 72.06 389.02 72.93 390.22 74.03L387.32 78.3C386.69 77.71 385.95 77.21 385.09 76.78 384.24 76.35 383.31 76.02 382.32 75.78 381.33 75.54 380.33 75.42 379.33 75.42 378.14 75.42 377.11 75.59 376.23 75.92 375.34 76.25 374.66 76.73 374.16 77.35 373.67 77.97 373.42 78.72 373.42 79.59 373.42 80.25 373.59 80.82 373.93 81.29 374.27 81.76 374.85 82.2 375.67 82.59 376.49 82.99 377.63 83.4 379.09 83.84L382.28 84.78C385.29 85.67 387.49 86.8 388.87 88.19 390.25 89.58 390.94 91.38 390.94 93.6 390.94 95.51 390.46 97.18 389.5 98.64 388.54 100.09 387.16 101.23 385.37 102.05 383.58 102.87 381.44 103.28 378.95 103.28Z" stroke-width="0" fill="#E41B93"/><path d="M422.04 103.3C418.79 103.3 415.93 102.63 413.47 101.29 411.01 99.95 409.1 98.05 407.72 95.59 406.35 93.13 405.66 90.24 405.66 86.93 405.66 84.53 406.07 82.33 406.87 80.32 407.68 78.31 408.82 76.57 410.29 75.09 411.76 73.61 413.5 72.47 415.51 71.67 417.52 70.87 419.72 70.47 422.1 70.47 424.48 70.47 426.71 70.78 428.47 71.4 430.22 72.02 431.78 72.9 433.15 74.04L430.14 78.83C429.2 77.93 428.08 77.26 426.79 76.81 425.5 76.36 424.08 76.13 422.54 76.13 420.88 76.13 419.38 76.38 418.06 76.88 416.74 77.38 415.62 78.1 414.69 79.03 413.76 79.96 413.05 81.08 412.55 82.4 412.05 83.72 411.81 85.2 411.81 86.85 411.81 89.11 412.25 91.04 413.14 92.64 414.02 94.24 415.28 95.46 416.92 96.32 418.55 97.18 420.49 97.6 422.72 97.6 424.25 97.6 425.74 97.37 427.18 96.9 428.63 96.44 429.99 95.69 431.26 94.67L433.98 99.6C432.48 100.77 430.74 101.68 428.77 102.32 426.8 102.96 424.55 103.29 422.03 103.29Z" stroke-width="0" fill="#E41B93"/><path d="M453.71 103.3C451.33 103.3 449.12 102.88 447.1 102.05 445.08 101.22 443.31 100.06 441.81 98.58 440.31 97.1 439.15 95.36 438.31 93.36 437.48 91.37 437.06 89.21 437.06 86.88 437.06 84.55 437.48 82.37 438.31 80.38 439.14 78.39 440.31 76.65 441.81 75.16 443.31 73.68 445.07 72.52 447.1 71.7 449.12 70.88 451.33 70.46 453.71 70.46 456.09 70.46 458.3 70.88 460.32 71.72 462.34 72.56 464.11 73.73 465.61 75.23 467.11 76.73 468.28 78.47 469.12 80.46 469.96 82.45 470.38 84.59 470.38 86.88 470.38 89.17 469.96 91.36 469.12 93.36 468.28 95.35 467.11 97.09 465.61 98.58 464.11 100.06 462.35 101.22 460.32 102.05 458.3 102.88 456.09 103.3 453.71 103.3ZM453.71 97.79C455.21 97.79 456.6 97.53 457.87 97.01 459.14 96.49 460.26 95.76 461.21 94.81 462.16 93.86 462.9 92.71 463.44 91.37 463.97 90.03 464.24 88.53 464.24 86.88 464.24 84.68 463.78 82.76 462.86 81.12 461.94 79.49 460.68 78.22 459.09 77.32 457.5 76.42 455.71 75.97 453.72 75.97 452.24 75.97 450.86 76.23 449.58 76.75 448.3 77.27 447.19 78 446.24 78.95 445.29 79.9 444.54 81.05 444.01 82.39 443.48 83.73 443.21 85.23 443.21 86.88 443.21 89.08 443.67 91 444.59 92.64 445.51 94.28 446.77 95.54 448.36 96.44 449.95 97.34 451.73 97.79 453.71 97.79Z" stroke-width="0" fill="#E41B93"/><path d="M476.34 102.62 476.34 71.13 482.01 71.13 494.56 91.69 492.27 91.71 504.28 71.13 509.88 71.13 509.88 102.62 504.17 102.62 504.26 78.78 505.34 79.16 495.2 96.12 491.06 96.12 480.67 79.16 481.64 78.78 481.73 102.62 476.35 102.62Z" stroke-width="0" fill="#E41B93"/><path d="M517.79 102.62 517.79 71.13 538.75 71.13 538.75 76.26 523.66 76.26 523.66 83.88 536.57 83.88 536.57 88.67 523.66 88.67 523.66 97.44 538.91 97.44 538.91 102.61 517.79 102.61Z" stroke-width="0" fill="#E41B93"/><path d="M552.88 102.62 564.96 71.13 571.51 71.13 583.84 102.62 577.23 102.62 574.55 95.49 561.91 95.49 559.32 102.62 552.89 102.62ZM563.34 90.52 573.06 90.52 568.13 77.74 563.34 90.52Z" stroke-width="0" fill="#E41B93"/><path d="M588.14 102.62 588.14 71.13 594.01 71.13 594.01 97.27 607.37 97.27 607.37 102.62 588.14 102.62Z" stroke-width="0" fill="#E41B93"/><path d="M612.86 102.62 612.86 71.13 618.73 71.13 618.73 102.62 612.86 102.62Z" stroke-width="0" fill="#E41B93"/><path d="M634.72 102.62 622.78 71.13 629.39 71.13 638.03 94.97 646.37 71.13 652.85 71.13 641.15 102.62 634.72 102.62Z" stroke-width="0" fill="#E41B93"/><path d="M656.9 102.62 656.9 71.13 677.86 71.13 677.86 76.26 662.77 76.26 662.77 83.88 675.68 83.88 675.68 88.67 662.77 88.67 662.77 97.44 678.02 97.44 678.02 102.61 656.9 102.61Z" stroke-width="0" fill="#E41B93"/></g><g><path d="M27.61 37.87 28.52 42.62C20.4 46.05 11.59 49.66 5.01 52.29L2.61 46.91C6.61 45.59 12.28 43.59 18.28 41.36L18.28 19.74 4.44 19.74 4.44 14.42 18.28 14.42 18.28 1.49 23.77 1.49 23.77 39.3 27.6 37.87ZM46.43 45.71C48.78 45.71 49.12 43.02 49.46 32.44 50.78 33.53 53.12 34.61 54.55 34.96 54.04 46.74 52.78 50.92 46.89 50.92L39.63 50.92C34.08 50.92 32.48 48.98 32.48 42.23L32.48 1.49 38.03 1.49 38.03 14.36 53.42 14.36 53.42 19.62 38.03 19.62 38.03 42.27C38.03 45.19 38.37 45.7 40.38 45.7L46.44 45.7Z" stroke-width="0" fill="#E41B93"/><path d="M120.8 41.58C117.71 43.07 114.11 44.44 110.9 45.53 114.62 47.07 119.08 48.1 124.23 48.56 123.26 49.53 121.94 51.53 121.37 52.85 109.47 51.31 101.58 46.9 97.23 39.12L91.22 39.12 91.22 47.07 101.06 45.13C101 46.33 101 48.28 101.06 49.19 88.3 52.16 86.53 52.62 85.45 53.31 85.22 52.05 84.42 49.93 83.79 49.02 84.76 48.56 86.19 47.53 86.19 45.19L86.19 39.13 81.61 39.13C80.87 43.99 79.26 49.14 76.18 53.09 75.27 52.29 72.98 50.92 71.72 50.4 76.58 44.34 77.21 35.99 77.21 30.09L77.21 22.77 121.88 22.77 121.88 26.72 82.3 26.72 82.3 29.18 119.42 29.18 119.42 32.67 82.24 32.67C82.24 33.53 82.18 34.33 82.07 35.24L123.31 35.24 123.31 39.13 117.87 39.13 120.79 41.59ZM119.14 20.47 77.73 20.47 77.73 4.18 89.4 4.18 89.4 0.46 94.61 0.46 94.61 4.18 101.7 4.18 101.7 0.46 106.96 0.46 106.96 4.18 119.14 4.18 119.14 20.48ZM82.59 10.69 89.4 10.69 89.4 7.66 82.59 7.66 82.59 10.69ZM82.59 16.98 89.4 16.98 89.4 13.95 82.59 13.95 82.59 16.98ZM94.6 7.66 94.6 10.69 101.69 10.69 101.69 7.66 94.6 7.66ZM94.6 13.95 94.6 16.98 101.69 16.98 101.69 13.95 94.6 13.95ZM102.32 39.12C103.52 40.72 105.12 42.21 106.95 43.35 109.81 42.32 113.36 40.55 115.93 39.12L102.32 39.12ZM114.05 7.66 106.96 7.66 106.96 10.69 114.05 10.69 114.05 7.66ZM114.05 13.95 106.96 13.95 106.96 16.98 114.05 16.98 114.05 13.95Z" stroke-width="0" fill="#E41B93"/><path d="M160.34 34.66C164.74 33 167.32 30.37 167.6 26.94 167.37 27 167.09 27 166.8 27 164.23 27 161.99 25.4 161.99 22.42 161.99 19.44 164.22 17.84 166.85 17.84 170.45 17.84 172.34 20.64 172.34 24.99 172.34 31.34 168.34 36.26 161.81 38.37L160.32 34.65Z" stroke-width="0" fill="#E41B93"/><path d="M237.8 13.73 237.8 20.82 256.16 20.82 256.16 40.44C256.16 43.24 255.59 44.84 253.47 45.64 251.35 46.5 248.15 46.56 243.52 46.56 243.29 45.07 242.43 42.78 241.63 41.35 245.06 41.46 248.49 41.46 249.41 41.46 250.38 41.4 250.67 41.17 250.67 40.37L250.67 26.01 237.8 26.01 237.8 52.78 232.25 52.78 232.25 26.01 220.18 26.01 220.18 46.66 214.8 46.66 214.8 20.81 232.25 20.81 232.25 13.72 209.6 13.72 209.6 8.52 233.28 8.52C232.36 6.35 231.05 3.66 229.9 1.54L235.11-4.44089e-15C236.65 2.63 238.66 6.29 239.46 8.52L260.91 8.52 260.91 13.72 237.8 13.72Z" stroke-width="0" fill="#E41B93"/><path d="M295.99 34.78C290.27 37.7 284.09 40.79 279.29 43.07L277.23 37.75C279.29 36.95 281.86 35.86 284.67 34.66L284.67 17.61 278.38 17.61 278.38 12.58 284.67 12.58 284.67 1.03 289.59 1.03 289.59 12.58 295.37 12.58 295.37 17.61 289.59 17.61 289.59 32.48C291.31 31.68 293.08 30.88 294.85 30.08L295.99 34.77ZM307.09 28.03C306.46 29.23 305.77 30.37 304.97 31.46L328.88 31.46C328.88 31.46 328.82 32.78 328.76 33.46 327.85 44.9 326.99 49.36 325.44 51.08 324.47 52.17 323.38 52.51 322.01 52.68 320.69 52.79 318.58 52.85 316.29 52.74 316.23 51.48 315.78 49.59 315.09 48.45 317.04 48.68 318.81 48.68 319.55 48.68 320.41 48.68 320.87 48.62 321.32 48.05 322.18 47.08 322.92 43.82 323.61 35.75L320.18 35.75C317.89 42.38 313.43 49.53 308.68 53.14 307.82 52.17 306.16 50.91 304.85 50.17 309.31 47.2 313.32 41.53 315.72 35.76L311.2 35.76C308.11 41.42 302.68 47.49 297.59 50.69 296.79 49.6 295.3 48.29 294.04 47.49 298.56 45.09 303.25 40.51 306.4 35.76L301.59 35.76C299.42 38.16 297.01 40.22 294.55 41.88 293.81 41.02 291.98 39.31 290.95 38.56 295.24 36.1 299.13 32.38 301.76 28.04L294.44 28.04 294.44 23.52 330.19 23.52 330.19 28.04 307.08 28.04ZM326.2 20.77 299.77 20.77 299.77 2 326.2 2 326.2 20.76ZM321.28 5.84 304.58 5.84 304.58 9.56 321.28 9.56 321.28 5.84ZM321.28 13.16 304.58 13.16 304.58 16.94 321.28 16.94 321.28 13.16Z" stroke-width="0" fill="#E41B93"/><path d="M397.13 9.32C397.13 9.32 397.13 11.15 397.07 11.84 396.27 37.64 395.58 46.5 393.29 49.36 391.86 51.25 390.49 51.76 388.31 52.05 386.31 52.28 382.93 52.22 379.67 52.05 379.56 50.62 378.93 48.39 377.95 46.9 381.61 47.19 384.93 47.24 386.36 47.24 387.5 47.24 388.13 47.07 388.76 46.27 390.59 44.38 391.34 35.75 392.08 14.18L378.58 14.18C376.98 17.84 375.21 21.16 373.37 23.79 372.51 22.99 370.51 21.56 369.19 20.82L369.19 47.07 353.69 47.07 353.69 51.42 348.83 51.42 348.83 9.61 355.24 9.61C356.04 6.86 356.9 3.09 357.24 0.34L363.02 1.31C362.05 4.17 360.96 7.2 360.05 9.6L369.2 9.6 369.2 20.41C372.97 15.49 376.01 7.88 377.72 0.33L382.87 1.53C382.18 4.16 381.44 6.79 380.52 9.31L397.11 9.31ZM353.71 14.24 353.71 25.11 364.35 25.11 364.35 14.24 353.71 14.24ZM364.35 42.38 364.35 29.74 353.71 29.74 353.71 42.38 364.35 42.38ZM383.4 37.92C381.8 34.43 378.08 28.83 375.05 24.71L379.23 22.37C382.26 26.32 386.15 31.75 387.87 35.13L383.41 37.93Z" stroke-width="0" fill="#E41B93"/><path d="M424.37 36.95C422.94 40.95 420.65 45.53 418.59 48.45 417.73 47.76 416.01 46.5 414.93 45.93 417.05 43.24 418.99 39.35 420.19 35.69L424.37 36.95ZM431.75 33.23 431.75 52.62 426.6 52.62 426.6 33.23 415.62 33.23 415.62 28.71 426.6 28.71 426.6 23.5 415.28 23.5 415.28 19.04 421.51 19.04C421.28 17.1 420.48 14.12 419.51 11.89L423.86 10.8C424.77 13.03 425.69 15.95 425.98 17.84L421.75 19.04 430.79 19.04C431.82 16.64 433.02 13.15 433.59 10.75L438.51 11.78C437.54 14.3 436.56 16.93 435.59 19.04L442.28 19.04 442.28 23.5 431.75 23.5 431.75 28.71 441.47 28.71 441.47 33.23 431.75 33.23ZM441.36 10.69 416.19 10.69 416.19 6.29 426.66 6.29C426.03 4.69 425.29 2.86 424.6 1.43L429.86 0.06C430.83 2.01 431.98 4.41 432.72 6.3L441.36 6.3 441.36 10.7ZM437.3 35.23C439.19 37.92 441.13 41.52 442.05 43.81L438.33 46.04C437.42 43.64 435.47 39.92 433.75 37.17L437.3 35.22ZM467.39 24.36 461.55 24.36 461.55 52.67 456.35 52.67 456.35 24.36 449.66 24.36 449.66 25.73C449.66 33.97 448.92 45.41 443.83 52.67 443.03 51.7 440.85 50.1 439.77 49.52 444.29 42.89 444.69 33.22 444.69 25.72L444.69 5.95C451.04 4.86 458.07 3.09 462.19 1.32L466.37 5.21C461.68 7.04 455.5 8.41 449.67 9.44L449.67 19.45 467.4 19.45 467.4 24.37Z" stroke-width="0" fill="#E41B93"/><path d="M486.96 20.88C486.1 19.79 484.5 18.42 483.3 17.79 487.7 12.64 490.34 5.78 491.59 0.4L496.51 1.09C496.11 2.52 495.65 4.01 495.14 5.55L501.43 5.55 502.34 5.26 505.43 7.38C504.29 9.78 502.91 12.41 501.48 14.76L508.4 14.76 508.4 37.13 486.95 37.13 486.95 20.88ZM483.3 50.97C485.87 48.28 486.9 43.82 487.42 39.3L491.19 40.22C490.62 45.08 489.59 50 486.84 52.98L483.29 50.98ZM493.54 9.73C492.85 11.45 492 13.1 491.14 14.76L496.63 14.76C497.49 13.27 498.4 11.5 499.15 9.73L493.54 9.73ZM495.66 23.92 495.66 19.06 491.37 19.06 491.37 23.92 495.66 23.92ZM491.37 27.92 491.37 32.78 495.66 32.78 495.66 27.92 491.37 27.92ZM496.23 39.3C496.92 42.79 497.2 47.25 497.09 50.17L493.32 50.63C493.55 47.71 493.26 43.25 492.75 39.76L496.24 39.3ZM501.49 39.19C502.81 42.39 503.84 46.63 504.12 49.37L500.52 50.23C500.35 47.43 499.32 43.19 498.12 39.93L501.5 39.19ZM503.89 19.06 499.49 19.06 499.49 23.92 503.89 23.92 503.89 19.06ZM503.89 27.93 499.49 27.93 499.49 32.79 503.89 32.79 503.89 27.93ZM507.03 38.28C508.86 41.54 510.75 45.89 511.43 48.69L507.94 50.01C507.25 47.15 505.48 42.8 503.71 39.48L507.03 38.28ZM536.26 38.74 524.88 38.74 524.88 52.87 519.67 52.87 519.67 38.74 509.32 38.74 509.32 34.05 519.67 34.05 519.67 27.3 511.03 27.3 511.03 22.67 519.67 22.67 519.67 16.38 509.83 16.38 509.83 11.69 514.81 11.69C514.12 8.89 512.64 5 511.09 2.08L515.44 0.54C517.21 3.69 518.99 7.86 519.62 10.61L516.88 11.7 527.63 11.7 524.48 10.79C525.91 7.99 527.68 3.58 528.54 0.44L533.92 1.76C532.32 5.25 530.6 9.14 529.06 11.71L534.95 11.71 534.95 16.4 524.88 16.4 524.88 22.69 533.92 22.69 533.92 27.32 524.88 27.32 524.88 34.07 536.26 34.07 536.26 38.76Z" stroke-width="0" fill="#E41B93"/><path d="M603.32 5.32C596.63 7.32 587.48 8.87 579.07 9.9L579.07 20.65C579.07 29.92 578.38 43.82 573.86 53.08 572.95 52.28 570.89 51.19 569.68 50.73 569.39 51.13 569.05 51.47 568.54 51.7 567.17 52.5 564.99 52.62 561.45 52.62 561.34 51.42 560.82 49.3 560.19 48.1 562.42 48.21 564.48 48.16 565.17 48.16 565.86 48.1 566.08 47.87 566.08 47.13L566.08 31.8C564.42 33.23 562.76 34.6 561.1 35.98L559.56 32.49C559.1 39.64 557.96 47.36 555.38 53.14 554.64 52.23 552.75 50.62 551.78 50.11 555.15 42.22 555.44 31.01 555.44 22.77L555.44 2.52 570.43 2.52 570.43 47.19C570.43 47.99 570.37 48.68 570.26 49.25 574.09 40.56 574.38 28.94 574.38 20.65L574.38 5.72C583.42 4.58 593.66 2.75 600.01 0.63L603.33 5.32ZM559.79 22.77C559.79 25.4 559.73 28.38 559.56 31.52 561.39 30.49 563.62 29 566.08 27.4L566.08 21.28 564.02 22.77C563.1 21.23 561.39 18.99 559.79 17.11L559.79 22.77ZM559.79 7.38 559.79 15.5 561.85 14.18C563.28 15.61 564.88 17.5 566.08 19.04L566.08 7.38 559.79 7.38ZM604.92 26.89C602.4 28.89 599.89 31.18 597.77 32.78 599.31 39.3 601.54 44.79 604.81 48.11 603.61 49.03 602.01 50.86 601.26 52.17 595.43 45.59 592.85 33.58 591.48 19.97 590.05 20.26 588.51 20.48 587.08 20.71L587.08 44.62 592.86 42.16C593.09 43.53 593.6 45.36 594 46.39 584.62 50.85 583.02 51.77 582.1 52.74 581.7 51.71 580.44 49.94 579.64 49.19 580.78 48.39 582.79 46.5 582.79 43.81L582.79 16.81C588.74 15.84 595.6 14.24 599.72 12.46L603.38 16.86C601.09 17.66 598.46 18.46 595.66 19.09 596 22.18 596.4 25.27 596.86 28.18 598.58 26.35 600.24 24.41 601.38 22.86L604.93 26.86Z" stroke-width="0" fill="#E41B93"/><path d="M672.2 13.5C672.2 13.5 672.14 15.33 672.14 15.96 671.51 39.58 671 47.71 669.16 50.17 668.07 51.89 666.87 52.34 665.1 52.63 663.38 52.86 660.75 52.86 658.06 52.69 657.95 51.26 657.37 49.09 656.57 47.66 659.2 47.89 661.55 47.89 662.57 47.89 663.54 47.89 664.06 47.72 664.63 46.98 665.89 45.38 666.46 38.11 666.92 18.44L660.17 18.44C659.43 33.66 656.85 45.78 647.01 53.33 646.21 52.13 644.44 50.24 643.18 49.38 643.52 49.15 643.87 48.87 644.21 48.58 635.97 49.55 627.74 50.41 621.62 50.98L620.93 46.46C624.25 46.23 628.37 45.89 632.88 45.49L632.88 41.14 622.47 41.14 622.47 37.25 632.88 37.25 632.88 34.33 622.64 34.33 622.64 17.11 632.88 17.11 632.88 14.14 621.1 14.14 621.1 10.19 632.88 10.19 632.88 6.99C629.39 7.28 625.9 7.45 622.7 7.56 622.53 6.47 621.96 4.76 621.44 3.73 629.91 3.27 640.03 2.24 645.98 0.93L648.5 4.93C645.47 5.56 641.69 6.13 637.75 6.53L637.75 10.19 649.31 10.19 649.31 13.51 655.31 13.51C655.37 9.62 655.37 5.56 655.37 1.27L660.46 1.27C660.46 5.5 660.4 9.62 660.35 13.51L672.19 13.51ZM627.01 24.08 632.9 24.08 632.9 20.59 627.01 20.59 627.01 24.08ZM632.9 30.83 632.9 27.34 627.01 27.34 627.01 30.83 632.9 30.83ZM637.76 45.02C641.31 44.68 644.97 44.33 648.57 43.93 653.26 37.47 654.69 28.83 655.15 18.42L649.09 18.42 649.09 14.13 637.76 14.13 637.76 17.1 648.4 17.1 648.4 34.32 637.76 34.32 637.76 37.24 648.51 37.24 648.51 41.13 637.76 41.13 637.76 45.02ZM643.88 24.08 643.88 20.59 637.76 20.59 637.76 24.08 643.88 24.08ZM637.76 27.34 637.76 30.83 643.88 30.83 643.88 27.34 637.76 27.34Z" stroke-width="0" fill="#E41B93"/></g></svg>