<svg viewBox="0 0 427.98 174.68" xmlns="http://www.w3.org/2000/svg" xmlns:xlink="http://www.w3.org/1999/xlink" id="design" overflow="hidden"><defs></defs><g><path d="M53.99 111.88C41.77 99.66 40.09 80.93 48.88 66.89 43.8 63.18 37.55 60.97 30.78 60.97L30.78 60.97C13.78 60.97 0 74.75 0 91.75L0 110.27C0 117.04 5.49 122.53 12.26 122.53L30.78 122.53C40.06 122.53 48.37 118.4 54.01 111.9 54.01 111.9 53.99 111.88 53.98 111.87L53.98 111.87Z" stroke-width="0" fill="#F75101"/><path d="M97.86 80.55C97.86 72.62 100.1 65.23 103.92 58.9L79.71 34.69 53.98 60.42C51.99 62.41 50.31 64.59 48.87 66.88 56.55 72.48 61.56 81.51 61.56 91.74 61.56 99.46 58.7 106.49 54.01 111.89 68.22 126.07 91.23 126.06 105.43 111.86 106.54 110.75 107.53 109.58 108.46 108.37 101.88 100.96 97.85 91.23 97.85 80.54L97.85 80.54Z" stroke-width="0" fill="#6A4CFF"/><path d="M48.88 66.88C40.09 80.93 41.77 99.65 53.99 111.87L53.99 111.87C53.99 111.87 54.01 111.89 54.02 111.9 58.71 106.5 61.57 99.46 61.57 91.75 61.57 81.52 56.56 72.48 48.88 66.89Z" stroke-width="0" fill="#4408FF"/><path d="M139.84 38.58 139.84 38.58C124.59 38.58 111.27 46.74 103.92 58.91L105.44 60.43C118.54 73.53 119.53 94.12 108.47 108.39 116.16 117.05 127.34 122.54 139.83 122.54L139.83 122.54C163.01 122.54 181.81 103.75 181.81 80.56L181.81 80.56C181.81 57.38 163.02 38.58 139.83 38.58Z" stroke-width="0" fill="#ED0286"/><path d="M105.44 60.43 103.92 58.91C100.1 65.24 97.86 72.63 97.86 80.56L97.86 80.56C97.86 91.25 101.89 100.98 108.47 108.39 119.53 94.12 118.54 73.53 105.44 60.43Z" stroke-width="0" fill="#4408FF"/></g><g><g><path d="M249.41 77.06C250.88 75.62 251.51 72.6 252.59 71.82 254.28 70.59 256.42 71.93 258.48 70.92 259.22 70.57 259.84 70 260.28 69.3 261.15 67.99 261.29 65.82 261.36 64.12 261.41 60.95 261.48 57.69 261.56 54.54 261.84 49.59 261.73 44.76 261.34 39.85 260.83 33.42 260.96 25.62 256.52 20.48 254.81 18.47 251.08 19.86 250.06 17.75 249.33 16.4 248.93 13.54 249.54 11.75 250.57 8.66 254.72 8.48 257.43 9.65 264.58 13.13 268.11 23.26 270.09 30.51 271.26 34.97 271.86 39.55 271.85 44.25 271.89 48.45 271.08 59.4 276.33 50.11 278.15 46.36 280.02 42.32 279.96 38.18 279.74 34.42 278.3 26.74 284.55 31.13 290.28 36.04 299.39 45.28 297.79 53.51 296.84 56.27 293.98 57.67 291.83 59.42 289.57 61.14 287.75 63.3 285.79 65.43 282.04 69.63 277.57 73.19 274.75 78.06 272.24 83.48 271.61 89.78 272.43 95.7 273.22 99.61 276.92 102.56 280.9 102.17 283.69 102.02 286.44 100.52 289.3 100.13 294.5 99.56 299.96 98.68 305.05 100.07 308.8 101.25 310.79 104.81 312.57 108.17 317.23 116.93 303.68 115.71 298.69 117.56 293.22 118.69 287.71 122.88 281.99 121.37 280.76 120.99 278.98 120.29 279.18 118.87 279.25 117.42 282.69 115.02 280.46 113.69 279.19 112.99 276.13 113.83 274.31 114.13 261.05 116.31 257.79 108.44 259.93 96.75 260.56 92.04 259.29 89.44 255.33 86.98 253.25 85.52 252.26 83.67 250.24 83.26 249.24 83.04 248.08 83.36 247.1 83.23 246.42 83.16 245.95 82.7 245.88 82.05 245.71 80.2 247.84 78.89 249.31 77.18L249.42 77.05Z" stroke-width="0"/><path d="M217.25 79.54C217.43 74.41 213.07 70.7 209.52 67.46 206.28 64.49 202.74 61.08 200.31 57.36 198.06 51.12 213.11 53.92 216.27 54.11 219.76 54.62 222.99 56.43 225.47 58.92 228.18 61.61 229.59 61.27 230.35 57.54 230.79 55.01 230.85 52.47 230.54 49.95 229.8 45.54 229.55 40.78 229.73 36.2 229.66 33.27 229.14 28.79 233.11 31.99 238.96 37.06 244.08 43.82 244.98 51.67 245.18 54.95 244.04 57.9 243.67 60.96 243.44 64.7 242.73 68.4 241.81 72.01 241.33 75.31 241.31 79.23 242.32 82.19 243.05 84.03 246.38 84.12 246.83 85.98 247.2 87.58 245.98 89.72 245.21 91.23 243.59 94.28 243.18 97.78 243.22 101.3 242.98 107.16 243.73 113.26 241.82 118.96 240.83 121.64 239.26 126.96 235.56 124.75 232.4 122.59 230.39 118.85 229.07 115.4 228.14 112.79 226.97 109.72 223.79 112.12 220.55 115.15 217.42 117.88 213.32 119.94 210.96 121.46 208.04 122.75 205.37 121.22 195.43 115.88 195.59 110.86 202.83 102.87 205.33 99.71 207.38 95.96 209.67 92.85 212.85 89.04 216.91 84.81 217.24 79.65L217.24 79.53ZM232.96 83.38C231.89 80.74 228.33 80.69 225.99 81.75 223.86 82.77 222.18 84.61 220.19 85.98 219.2 86.69 218.17 87.43 217.37 88.34 215.78 90.09 215.06 92.5 213.7 94.81 213.13 95.84 212.53 96.93 212.21 98.05 210.85 103.96 217.65 100.53 220.23 99.11 223.73 97.49 227.48 96.71 227.58 92.62 227.95 91.3 227.15 84.92 229.39 85.9 229.73 86.05 230.07 86.31 230.43 86.38 231.07 86.57 231.87 85.02 232.27 85.81 232.56 86.34 232.73 87.11 232.91 87.66 232.98 87.88 233.04 87.95 233.1 87.85 233.36 87.18 233.59 84.91 233.03 83.53L232.97 83.38Z" stroke-width="0"/></g><path d="M364.2 104.29C363.52 103.56 362.36 103.23 361.69 102.45 360.47 101.22 361.09 99.12 361.3 97 361.49 95.57 361.92 93.73 363.17 92.98 364.08 92.36 365.31 92.39 366.39 92.29 371.24 91.72 375.29 87.98 379.32 85.59 381.39 84.1 376.5 85.41 375.81 85.38 372.08 85.58 367.93 85.32 365.04 88 358.64 94.87 352.43 101.9 346.59 109.26 343.58 114.4 339.31 118.47 335.82 123.11 334.78 124.91 333.78 126.62 332.18 127.89 329.39 129.94 327.3 135.55 323.25 133.93 322.32 133.26 321.99 131.96 321.6 130.9 320.96 128.94 319.46 127.69 319.48 126.16 319.56 124.36 321.12 122.47 322.39 121.08 324.7 118.7 328.27 117.57 330.73 115.08 333.62 111.99 334.96 107.98 338.39 105.18 340.9 103.41 342.68 101.26 344.37 98.69 346.82 95.82 349.36 92.97 351.83 90.02 354.15 87.18 356.7 84.72 359.06 81.85 360.9 79.89 363.38 78.13 364.62 75.77 365.38 73.8 359.65 75.92 358.86 76.2 354.78 78.41 350.56 80.96 346.09 82.32 341.8 83.17 338.71 78.49 338.3 74.69 337.85 71.97 339.72 70.14 342.22 69.73 344.27 69.38 346.5 71.06 348.82 70.7 352.48 69.85 355.67 67.39 359.31 66.45 365.08 65.11 370.53 62.8 376.24 61.08 378.59 60.12 381.22 59.95 383.35 58.62 384.2 58.04 385.6 56.03 384.59 55.47 384.11 55.29 382.74 55.93 381.64 55.77 380.39 55.55 379.26 54.81 377.96 54.85 374.66 54.96 371.28 55.44 368.32 57.2 366.49 58.32 365.85 60.86 363.95 61.89 362.62 62.68 360.95 62.03 359.82 61.04 357.23 58.87 356.78 55.4 355.83 52.46 355.63 51.63 355.53 50.76 355.55 49.89 355.78 46.88 355.46 43.77 354.78 40.82 354.72 38.26 354.64 36 354.55 33.42 354.77 31.34 353.18 29.52 352.29 27.65 351.82 26.37 352.39 25.47 353.8 25.44 355.95 25.44 358.03 26.7 360.18 26.83 362.33 26.99 364.22 25.42 366.44 24.87 369.78 24.28 371.01 23.41 371.42 19.85 371.76 18.04 371.36 16.12 370.24 14.57 369.35 13.24 368.78 12.03 369.43 11.18 371.91 8.34 378.89 6.79 380.9 10.62 381.73 12.58 381.5 14.88 381.27 16.93 381.14 17.95 381.08 18.85 381.42 19.43 382.1 20.53 384.16 20.57 385.77 20.15 388.61 19.58 388.58 16.77 388.99 14.49 390.12 11.16 391.1 7.43 390.46 3.84 390.31 2.86 389.95 1.62 390.43 0.78 391.38-0.59 394.36 0.13 395.88 0.65 400.24 1.87 401.43 6.41 400.07 10.4 399.68 12.51 396.44 18.87 400.37 19.04 401.87 19.02 403.41 18.45 404.93 18.51 411.87 18.41 414.39 21.67 417.91 26.98 418.71 28.19 419.31 29.64 419.16 31.1 419.03 32.72 417.9 34.03 416.83 35.19 415.1 37.02 413.44 38.71 412 40.83 409.9 44.31 407.46 47.56 404.37 50.26 402.41 52.23 401 53.99 398.67 55.48 398.03 56.04 396.05 57.12 396.98 57.96 397.64 58.61 399.82 59.16 400.65 60.37 403.35 65.02 393.88 65.04 391.61 67.03 390.49 67.72 389.37 68.51 388.21 69.11 384.68 70.51 381.69 72.55 378.84 75.25 378.46 75.59 377.68 76.34 377.75 76.65 377.78 76.87 378.14 76.93 378.68 76.81 382.42 75.68 385.67 73.33 389.43 72.48 392.66 71.4 395.47 68.92 399.1 69.39 401.71 69.79 404.63 69.9 406.77 71.48 409.95 76.35 400.66 80.52 397.56 82.89 394.18 84.67 394.12 85.54 397.43 86.03 400.32 86.34 403.44 86.35 405.64 88.13 406.74 88.99 407.75 90.01 409.05 90.56 412.01 91.66 416.67 91.98 418.02 95.07 418.68 96.59 417.89 98.53 416.62 99.57 412.67 102.13 408.07 104.16 403.85 106.34 402.82 106.89 401.39 107.71 401.29 108.95 401.68 111.61 406.13 111.11 408.04 112.09 412.68 114.29 417.87 116.51 422 119.45 423.7 120.89 425.48 122.51 426.6 124.42 429.71 131.73 427.5 134.55 420.13 130.12 418.39 129.11 417.1 127.57 415.62 126.24 413.51 124.24 411.29 123.26 408.76 121.86 404.31 119.04 399.29 116.81 394.03 116.44 390.27 117.43 388.4 121.38 385.32 123.57 383.63 124.77 382.38 126.6 380.85 127.87 379.1 129.28 377 130.21 375.15 131.51 373.33 132.72 371.46 134.2 369.23 134.26 366.77 134.25 365.69 131.74 364.48 129.82 363.72 128.49 362.3 127.43 362.13 125.84 362.07 124.24 363.11 122.73 363.57 121.2 364.69 118.39 364.51 115.43 364.64 112.46 364.61 110.5 364.96 108.77 364.86 106.89 364.88 106 364.82 105.08 364.25 104.38L364.17 104.29ZM395.96 93.39C392.11 94.05 388.43 95.26 384.64 96.18 378.63 98.06 374.81 99.82 374.17 106.7 374.19 108.15 375.76 108.16 376.9 108.02 380.97 107.72 384.99 108.02 388.53 105.55 392.09 102.85 396.15 101.56 399.6 98.62 400.94 97.31 402.36 96.13 403.87 95.07 405.41 93.95 405.66 92 403.26 92.55 400.9 92.91 398.45 92.41 396.17 93.34L395.98 93.39ZM391.49 45.22C393.58 45.54 395.51 39.95 396.94 38.55 398.39 36.71 400.08 35.02 401.59 33.19 402.37 31.88 403.01 30.12 403.24 28.61 403.29 27.12 401.57 26.46 400.29 26.42 397.42 26.19 394.93 27.54 395.47 30.68 395.6 31.71 396.26 32.6 396.75 33.44 397.87 35.39 395.47 36.82 394.03 37.68 391.45 39.04 391.89 41.25 391.4 43.7 391.3 44.17 391.08 44.79 391.41 45.16L391.48 45.22ZM373.5 116.97C373.22 118.21 373.13 119.97 374.62 120.33 375.97 120.43 376.88 118.99 378.05 118.54 380.26 117.63 382.31 116.19 384.42 115.04 384.72 114.84 385.16 114.47 385.21 114.17 385.27 113.93 385.15 113.74 384.89 113.6 384.21 113.3 383.24 113.17 382.46 113.06 380.56 112.82 379.05 114.65 377.26 114.93 375.82 115.2 373.65 114.69 373.53 116.77L373.5 116.96ZM367.23 38.51C367.37 38.5 367.63 38.02 368 37.79 368.41 37.51 368.97 37.43 369.35 37.1 370 36.36 370.71 35.43 370.81 34.38 370.91 33.39 370.07 32.64 369.85 31.73 369.72 31.13 369.56 30.65 368.97 30.57 368.09 30.49 366.79 30.41 365.96 30.63 365.28 31.1 366.28 32.1 366.28 32.75 366.65 34.31 365.99 35.86 366.6 37.31 366.79 37.67 366.91 38.24 367.16 38.51L367.22 38.51ZM369.75 45.1C369.93 43.97 368.06 43.03 367.24 43.68 366.53 44.48 367.14 45.67 366.99 46.65 366.94 47.61 367.21 48.78 368.01 49.37 368.64 49.55 369.03 48.82 369.06 48.23 369.16 47.27 369.42 46.14 369.71 45.28L369.74 45.11ZM380.39 41.4C380.02 41.43 379.64 41.81 379.27 42.1 378.83 42.38 378.64 42.56 378.79 43 378.84 43.24 378.85 43.52 378.82 43.76 378.65 44.52 378.02 45.15 378.41 45.92 379.04 47.08 379.56 46.02 380.15 45.45 380.59 45.04 380.55 44.35 380.79 43.83 381.02 43.32 381.76 43 381.7 42.46 381.62 41.94 380.99 41.46 380.54 41.41L380.38 41.41ZM385.26 29.28C385.26 28.37 384.55 28.63 384.08 29.16 383.72 29.47 383.06 29.35 382.58 29.52 382.19 29.65 381.85 29.88 381.51 30.12 381.14 30.44 380.56 30.56 380.55 31.02 380.88 31.45 381.99 31.1 382.51 31.4 382.82 31.56 383.03 31.93 383.32 32.15 384.7 32.62 384.94 30.26 385.23 29.43L385.25 29.28Z" stroke-width="0"/></g><g><path d="M0.99 174.1 0.99 146.96 11.5 146.96C14.27 146.96 16.48 147.54 18.13 148.7 19.78 149.86 20.61 151.57 20.61 153.85 20.61 154.68 20.44 155.44 20.11 156.14 19.77 156.84 19.32 157.46 18.74 157.99 18.16 158.53 17.52 158.96 16.81 159.28 18.27 159.8 19.45 160.66 20.35 161.86 21.25 163.06 21.7 164.49 21.7 166.14 21.7 167.79 21.29 169.16 20.49 170.35 19.68 171.54 18.53 172.46 17.05 173.12 15.56 173.78 13.8 174.11 11.76 174.11L0.99 174.11ZM7.43 158.09 10.63 158.09C11.4 158.09 12.07 157.96 12.63 157.7 13.19 157.44 13.62 157.07 13.93 156.58 14.24 156.09 14.39 155.5 14.39 154.82 14.39 153.82 14.06 153.06 13.39 152.52 12.72 151.98 11.77 151.71 10.53 151.71L7.43 151.71 7.43 158.09ZM7.43 169.35 10.82 169.35C12.21 169.35 13.26 169.07 13.96 168.5 14.66 167.93 15.01 167.08 15.01 165.94 15.01 164.8 14.67 164.01 14 163.41 13.33 162.81 12.34 162.51 11.03 162.51L7.42 162.51 7.42 169.35Z" stroke-width="0"/><path d="M32.7 174.1 32.7 146.96 51.77 146.96 51.77 152.54 39.13 152.54 39.13 157.58 49.73 157.58 49.73 162.74 39.13 162.74 39.13 168.46 51.92 168.46 51.92 174.1 32.69 174.1Z" stroke-width="0"/><path d="M63.52 174.1 63.52 146.96 69.96 146.96 69.96 174.1 63.52 174.1Z" stroke-width="0"/><path d="M82.56 174.1 82.56 146.96 88.92 146.96 100.09 163.59 100.09 146.96 106.33 146.96 106.33 174.1 99.97 174.1 88.79 157.24 88.79 174.1 82.57 174.1Z" stroke-width="0"/><path d="M131.72 174.68C129.64 174.68 127.71 174.32 125.94 173.6 124.17 172.88 122.63 171.88 121.34 170.61 120.04 169.33 119.03 167.83 118.32 166.11 117.6 164.39 117.24 162.53 117.24 160.53 117.24 158.53 117.6 156.65 118.32 154.93 119.04 153.21 120.04 151.71 121.34 150.43 122.64 149.15 124.17 148.16 125.94 147.45 127.71 146.74 129.64 146.38 131.72 146.38 133.8 146.38 135.72 146.74 137.49 147.47 139.25 148.19 140.79 149.2 142.09 150.49 143.39 151.78 144.41 153.29 145.12 155 145.84 156.71 146.2 158.56 146.2 160.53 146.2 162.5 145.84 164.39 145.12 166.11 144.4 167.83 143.39 169.33 142.09 170.61 140.78 171.89 139.25 172.89 137.49 173.6 135.73 174.32 133.8 174.68 131.72 174.68ZM131.72 168.63C132.83 168.63 133.86 168.44 134.8 168.07 135.74 167.7 136.56 167.15 137.26 166.44 137.96 165.73 138.5 164.87 138.88 163.87 139.26 162.87 139.45 161.75 139.45 160.53 139.45 158.89 139.11 157.46 138.44 156.25 137.77 155.03 136.85 154.1 135.69 153.43 134.53 152.76 133.2 152.43 131.72 152.43 130.61 152.43 129.58 152.62 128.64 152.99 127.7 153.37 126.88 153.91 126.19 154.62 125.5 155.33 124.96 156.18 124.57 157.18 124.18 158.17 123.99 159.29 123.99 160.53 123.99 162.17 124.33 163.6 125 164.81 125.67 166.03 126.59 166.97 127.76 167.63 128.93 168.3 130.25 168.63 131.72 168.63Z" stroke-width="0"/><path d="M157.11 174.1 157.11 146.96 163.47 146.96 174.64 163.59 174.64 146.96 180.88 146.96 180.88 174.1 174.52 174.1 163.34 157.24 163.34 174.1 157.12 174.1Z" stroke-width="0"/><path d="M207.08 174.68C204.99 174.68 203.01 174.36 201.17 173.71 199.32 173.06 197.7 172.13 196.29 170.91 194.89 169.69 193.79 168.21 192.99 166.46 192.19 164.72 191.79 162.75 191.79 160.55 191.79 158.35 192.17 156.4 192.94 154.67 193.71 152.93 194.78 151.44 196.15 150.2 197.52 148.96 199.11 148.01 200.92 147.36 202.73 146.71 204.67 146.38 206.76 146.38 207.72 146.38 208.72 146.45 209.76 146.6 210.81 146.75 211.87 147.01 212.96 147.38 214.05 147.75 215.11 148.29 216.16 148.97L213.48 153.95C212.55 153.36 211.56 152.91 210.51 152.62 209.46 152.33 208.35 152.18 207.18 152.18 205.82 152.18 204.6 152.37 203.52 152.75 202.43 153.13 201.51 153.69 200.76 154.42 200 155.15 199.43 156.03 199.02 157.07 198.62 158.1 198.42 159.27 198.42 160.58 198.42 162.45 198.82 164.02 199.62 165.28 200.42 166.54 201.51 167.49 202.88 168.13 204.25 168.77 205.78 169.09 207.47 169.09 208.14 169.09 208.78 169.03 209.39 168.91 210 168.79 210.53 168.66 211 168.5L211 163.69 205.46 163.69 205.46 158.57 216.65 158.57 216.65 172.41C215.84 172.87 214.87 173.28 213.75 173.62 212.63 173.96 211.49 174.22 210.32 174.4 209.15 174.57 208.08 174.66 207.09 174.66Z" stroke-width="0"/><path d="M244.3 174.1 244.3 146.96 248.51 146.96 259.58 164.97 257.89 164.99 268.55 146.96 272.68 146.96 272.68 174.1 268.44 174.1 268.5 152.74 269.33 153.03 260.1 168.25 256.92 168.25 247.52 153.03 248.22 152.74 248.28 174.1 244.31 174.1Z" stroke-width="0"/><path d="M281.26 174.1 291.8 146.96 296.51 146.96 307.33 174.1 302.43 174.1 299.93 167.63 288.44 167.63 286.04 174.1 281.27 174.1ZM289.56 163.88 298.77 163.88 294.08 152.08 289.56 163.88Z" stroke-width="0"/><path d="M315.92 174.1 315.92 146.96 326.18 146.96C328.07 146.96 329.7 147.29 331.07 147.94 332.44 148.59 333.51 149.52 334.27 150.72 335.03 151.92 335.4 153.35 335.4 155 335.4 156.34 335.11 157.53 334.54 158.57 333.96 159.61 333.16 160.45 332.13 161.12 331.1 161.79 329.9 162.24 328.54 162.49L336.72 174.1 331.47 174.1 323.97 163.17 320.27 163.17 320.27 174.1 315.93 174.1ZM320.26 159.54 325.45 159.54C327.21 159.54 328.57 159.17 329.55 158.42 330.53 157.67 331.01 156.6 331.01 155.2 331.01 153.8 330.57 152.65 329.69 151.86 328.81 151.07 327.5 150.67 325.75 150.67L320.25 150.67 320.25 159.55Z" stroke-width="0"/><path d="M346.33 174.1 346.33 146.96 350.67 146.96 350.67 160.86 361.89 146.96 367.24 146.96 357.32 159.25 368.74 174.1 363.14 174.1 354.47 162.57 350.67 167.07 350.67 174.11 346.33 174.11Z" stroke-width="0"/><path d="M377.93 174.1 377.93 146.96 395.47 146.96 395.47 150.8 382.27 150.8 382.27 158.13 393.67 158.13 393.67 161.75 382.27 161.75 382.27 170.22 395.59 170.22 395.59 174.1 377.93 174.1Z" stroke-width="0"/><path d="M411.48 174.1 411.48 150.96 403.84 150.96 403.84 146.97 423.46 146.97 423.46 150.96 415.82 150.96 415.82 174.1 411.48 174.1Z" stroke-width="0"/></g></svg>